<svg id="svg" version="1.1" xmlns="http://www.w3.org/2000/svg" xmlns:xlink="http://www.w3.org/1999/xlink" width="400" height="89.43488943488943" viewBox="0, 0, 400,89.43488943488943"><g id="svgg"><path id="path0" d="M316.000 7.837 L 316.000 14.175 320.819 14.162 C 324.980 14.150,325.651 14.114,325.736 13.894 C 325.914 13.429,325.844 2.165,325.661 1.822 C 325.496 1.515,325.264 1.500,320.744 1.500 L 316.000 1.500 316.000 7.837 M386.831 18.708 C 386.829 31.856,386.789 34.838,386.618 34.501 C 386.314 33.901,385.761 33.826,385.871 34.400 C 385.917 34.638,385.889 34.833,385.810 34.833 C 385.731 34.833,385.667 34.511,385.667 34.117 C 385.667 33.354,385.448 33.000,384.978 33.000 C 384.786 33.000,384.671 32.845,384.636 32.542 C 384.595 32.182,384.485 32.072,384.125 32.031 C 383.804 31.994,383.667 31.883,383.667 31.661 C 383.667 31.487,383.522 31.267,383.344 31.173 C 382.916 30.943,382.787 30.955,382.939 31.208 C 383.024 31.350,382.974 31.343,382.782 31.188 C 382.627 31.062,382.500 30.864,382.500 30.749 C 382.500 30.452,381.756 30.000,381.267 30.000 C 380.942 30.000,380.844 29.904,380.803 29.542 C 380.774 29.290,380.656 29.074,380.542 29.063 C 380.427 29.051,380.219 29.032,380.079 29.021 C 379.939 29.009,379.754 28.813,379.667 28.583 C 379.580 28.354,379.375 28.158,379.212 28.147 C 379.050 28.137,378.842 28.111,378.750 28.089 C 378.658 28.068,378.415 28.039,378.208 28.025 C 377.931 28.007,377.833 27.896,377.833 27.601 C 377.833 27.129,377.563 27.000,376.570 27.000 C 375.952 27.000,375.833 26.948,375.833 26.677 C 375.833 26.213,375.616 26.130,374.101 26.017 C 372.895 25.927,372.750 25.881,372.750 25.583 C 372.750 25.400,372.637 25.248,372.500 25.246 C 372.363 25.243,372.169 25.191,372.071 25.129 C 371.803 24.961,358.641 24.990,358.745 25.158 C 358.794 25.237,358.687 25.264,358.508 25.217 C 358.297 25.162,358.044 25.282,357.787 25.559 C 357.463 25.909,357.214 25.995,356.404 26.035 C 355.568 26.076,355.420 26.130,355.442 26.386 C 355.455 26.553,355.424 26.646,355.372 26.594 C 355.320 26.542,355.158 26.607,355.013 26.738 C 354.868 26.870,354.354 27.012,353.871 27.054 C 352.962 27.134,352.500 27.375,352.500 27.770 C 352.500 27.906,352.324 28.000,352.072 28.000 C 351.799 28.000,351.445 28.211,351.092 28.586 C 350.725 28.975,350.448 29.136,350.268 29.067 C 349.924 28.935,349.500 29.277,349.500 29.687 C 349.500 29.925,349.378 30.000,348.988 30.000 C 348.528 30.000,348.482 30.046,348.530 30.458 C 348.575 30.846,348.516 30.925,348.145 30.968 C 347.595 31.031,345.548 32.992,345.471 33.529 C 345.431 33.810,345.307 33.912,345.000 33.914 C 344.678 33.916,344.572 34.014,344.534 34.341 C 344.500 34.631,344.334 34.823,344.012 34.944 C 343.601 35.099,343.539 35.212,343.530 35.810 C 343.519 36.669,343.418 36.833,342.907 36.833 C 342.666 36.833,342.500 36.930,342.500 37.071 C 342.500 37.202,342.315 37.455,342.089 37.632 C 341.863 37.810,341.725 38.003,341.783 38.061 C 341.841 38.119,341.801 38.167,341.694 38.167 C 341.587 38.167,341.500 38.350,341.500 38.575 C 341.500 38.800,341.398 39.043,341.273 39.117 C 340.985 39.285,340.501 40.221,340.497 40.617 C 340.496 40.782,340.308 41.093,340.080 41.309 C 339.688 41.681,339.625 41.907,339.585 43.083 C 339.572 43.453,339.450 43.640,339.117 43.801 C 338.688 44.008,338.667 44.076,338.667 45.249 C 338.667 45.926,338.590 46.527,338.497 46.585 C 338.404 46.643,338.371 46.759,338.423 46.843 C 338.475 46.927,338.393 46.949,338.242 46.890 C 337.774 46.711,337.672 47.166,337.669 49.432 C 337.667 51.565,337.658 51.617,337.271 51.793 C 336.729 52.040,336.675 52.484,336.687 56.546 C 336.699 60.362,336.764 60.840,337.301 61.081 C 337.647 61.237,337.667 61.349,337.667 63.195 C 337.667 65.335,337.798 65.908,338.321 66.045 C 338.627 66.125,338.667 66.262,338.667 67.245 C 338.667 68.420,338.859 69.000,339.248 69.000 C 339.412 69.000,339.518 69.303,339.597 70.006 C 339.668 70.627,339.782 70.989,339.896 70.951 C 340.158 70.864,340.500 71.251,340.500 71.634 C 340.500 72.469,340.712 72.975,341.101 73.073 C 341.388 73.145,341.500 73.289,341.500 73.587 C 341.500 73.814,341.562 74.000,341.638 74.000 C 341.714 74.000,341.771 74.169,341.763 74.375 C 341.755 74.609,341.888 74.810,342.117 74.911 C 342.330 75.004,342.506 75.251,342.534 75.495 C 342.572 75.816,342.693 75.929,343.042 75.969 C 343.422 76.013,343.500 76.103,343.500 76.498 C 343.500 76.805,343.678 77.152,344.000 77.474 C 344.275 77.749,344.500 78.060,344.500 78.164 C 344.500 78.268,344.567 78.312,344.648 78.262 C 344.729 78.211,344.785 78.301,344.773 78.460 C 344.759 78.641,344.859 78.741,345.040 78.727 C 345.199 78.715,345.289 78.771,345.238 78.852 C 345.188 78.933,345.221 79.000,345.312 79.000 C 345.403 79.000,345.501 79.169,345.530 79.375 C 345.566 79.627,345.758 79.806,346.117 79.922 C 346.410 80.017,346.710 80.161,346.784 80.241 C 346.857 80.322,346.824 80.333,346.708 80.267 C 346.578 80.192,346.500 80.248,346.500 80.416 C 346.500 80.563,346.721 80.761,346.990 80.855 C 347.297 80.962,347.500 81.161,347.532 81.388 C 347.565 81.619,347.722 81.770,347.968 81.804 C 348.179 81.834,348.435 82.041,348.537 82.264 C 348.654 82.522,348.961 82.741,349.378 82.866 C 349.738 82.974,350.141 83.227,350.273 83.428 C 350.405 83.630,350.716 83.835,350.965 83.886 C 351.222 83.938,351.488 84.144,351.583 84.364 C 351.719 84.677,351.899 84.760,352.542 84.801 C 353.178 84.842,353.333 84.911,353.333 85.155 C 353.333 85.471,353.693 85.864,353.941 85.819 C 354.631 85.696,355.333 85.860,355.333 86.146 C 355.333 86.665,355.701 86.816,357.091 86.867 C 358.382 86.915,358.415 86.927,358.361 87.315 C 358.317 87.627,358.364 87.691,358.578 87.609 C 358.737 87.547,358.808 87.572,358.749 87.669 C 358.684 87.774,359.489 87.833,360.990 87.833 C 362.937 87.833,363.333 87.875,363.333 88.077 C 363.333 88.384,363.945 88.724,364.272 88.598 C 364.410 88.545,364.473 88.576,364.415 88.669 C 364.350 88.774,365.130 88.833,366.583 88.833 C 368.036 88.833,368.816 88.774,368.751 88.669 C 368.694 88.576,368.757 88.545,368.895 88.598 C 369.222 88.724,369.833 88.384,369.833 88.077 C 369.833 87.880,370.159 87.830,371.542 87.818 C 374.536 87.792,374.833 87.732,374.833 87.157 C 374.833 86.873,374.954 86.833,375.816 86.833 C 376.669 86.833,376.866 86.770,377.315 86.351 C 377.668 86.021,378.069 85.839,378.584 85.776 C 379.506 85.663,379.667 85.571,379.667 85.157 C 379.667 84.897,379.784 84.833,380.260 84.833 C 380.586 84.833,380.815 84.772,380.768 84.696 C 380.573 84.380,381.881 83.690,382.458 83.806 C 382.573 83.829,382.667 83.691,382.667 83.499 C 382.667 83.260,382.826 83.094,383.170 82.974 C 383.447 82.877,383.748 82.659,383.839 82.489 C 383.930 82.319,384.267 82.056,384.588 81.903 C 384.909 81.751,385.299 81.410,385.455 81.146 C 385.611 80.883,385.836 80.667,385.956 80.667 C 386.076 80.667,386.259 80.479,386.364 80.250 C 386.468 80.021,386.620 79.833,386.701 79.833 C 386.783 79.833,387.022 79.647,387.233 79.420 L 387.616 79.006 387.722 80.849 C 387.815 82.479,387.869 82.726,388.196 82.990 C 388.398 83.154,388.644 83.617,388.740 84.019 C 388.873 84.570,388.996 84.750,389.240 84.751 C 389.464 84.751,389.605 84.917,389.703 85.292 C 389.814 85.721,389.930 85.833,390.259 85.833 C 390.554 85.833,390.723 85.960,390.840 86.267 C 390.951 86.559,391.088 86.668,391.261 86.602 C 391.407 86.546,391.474 86.574,391.415 86.669 C 391.353 86.769,391.648 86.833,392.169 86.833 C 392.709 86.833,393.116 86.926,393.275 87.085 C 393.414 87.223,393.595 87.294,393.678 87.243 C 393.761 87.191,393.780 87.279,393.719 87.437 C 393.634 87.660,393.674 87.700,393.896 87.614 C 394.068 87.549,394.143 87.571,394.082 87.669 C 394.017 87.774,394.740 87.833,396.083 87.833 C 397.631 87.833,398.155 87.782,398.067 87.641 C 397.992 87.519,398.022 87.494,398.148 87.572 C 398.266 87.645,398.484 87.521,398.685 87.264 C 398.872 87.027,399.131 86.833,399.262 86.833 C 399.461 86.833,399.500 86.222,399.500 83.089 C 399.500 78.898,399.551 79.065,398.268 79.027 C 397.911 79.017,397.592 78.981,397.558 78.947 C 397.525 78.914,397.498 61.850,397.499 41.027 C 397.501 3.363,397.500 3.166,397.167 2.834 C 396.848 2.515,396.615 2.500,391.833 2.500 L 386.833 2.500 386.831 18.708 M397.333 40.157 C 397.333 64.526,397.277 77.015,397.167 77.083 C 397.056 77.152,397.000 64.835,397.000 40.260 C 397.000 15.753,397.056 3.333,397.167 3.333 C 397.277 3.333,397.333 15.719,397.333 40.157 M240.428 4.648 C 240.377 4.731,240.354 23.237,240.376 45.774 L 240.417 86.750 263.822 86.791 L 287.227 86.832 287.655 86.334 C 288.046 85.878,288.180 85.833,289.208 85.810 C 289.827 85.796,290.333 85.721,290.333 85.642 C 290.333 85.260,291.036 84.833,291.667 84.833 C 292.033 84.833,292.333 84.758,292.333 84.667 C 292.333 84.404,292.900 83.921,293.258 83.877 C 294.094 83.775,294.253 83.697,294.303 83.359 C 294.335 83.146,294.477 83.000,294.653 83.000 C 295.258 83.000,296.028 82.615,296.170 82.242 C 296.251 82.027,296.484 81.835,296.699 81.804 C 296.942 81.770,297.102 81.619,297.134 81.394 C 297.169 81.151,297.341 81.007,297.676 80.940 C 298.056 80.864,298.167 80.751,298.167 80.442 C 298.167 80.131,298.278 80.019,298.667 79.942 C 299.059 79.863,299.167 79.754,299.167 79.432 C 299.167 79.153,299.286 78.985,299.542 78.905 C 299.997 78.763,300.161 78.536,300.164 78.042 C 300.167 77.660,300.697 77.000,301.000 77.000 C 301.092 77.000,301.167 76.775,301.167 76.500 C 301.167 76.178,301.251 76.000,301.405 76.000 C 301.860 76.000,302.167 75.492,302.167 74.738 C 302.167 74.108,302.216 74.000,302.504 74.000 C 302.954 74.000,303.167 73.395,303.167 72.112 C 303.167 71.201,303.211 71.060,303.542 70.914 C 303.778 70.810,303.912 70.611,303.903 70.375 C 303.896 70.169,303.950 70.000,304.023 70.000 C 304.653 70.000,304.067 58.976,303.424 58.730 C 303.233 58.656,303.167 58.382,303.167 57.660 C 303.167 56.484,302.942 55.831,302.498 55.714 C 302.251 55.650,302.167 55.487,302.167 55.075 C 302.167 54.245,301.895 53.667,301.504 53.667 C 301.239 53.667,301.167 53.558,301.167 53.161 C 301.167 52.577,300.735 51.833,300.397 51.833 C 300.271 51.833,300.159 51.740,300.149 51.625 C 300.139 51.510,300.120 51.270,300.107 51.092 C 300.093 50.896,299.923 50.728,299.682 50.671 C 299.296 50.579,298.961 50.056,299.117 49.788 C 299.158 49.717,299.130 49.669,299.054 49.682 C 298.555 49.769,298.316 49.622,298.226 49.173 C 298.172 48.902,298.080 48.686,298.022 48.693 C 297.566 48.750,297.363 48.606,297.275 48.165 C 297.220 47.890,297.116 47.674,297.046 47.685 C 296.618 47.755,296.385 47.609,296.218 47.167 C 296.078 46.797,295.922 46.667,295.617 46.667 C 295.347 46.667,295.176 46.553,295.119 46.335 C 295.025 45.976,294.386 45.667,293.739 45.667 C 293.447 45.667,293.333 45.575,293.333 45.339 C 293.333 44.911,292.852 44.667,292.011 44.667 C 291.508 44.667,291.333 44.600,291.333 44.407 C 291.333 44.264,291.259 44.193,291.169 44.249 C 291.076 44.306,291.045 44.243,291.098 44.105 C 291.161 43.942,291.063 43.835,290.804 43.786 C 290.532 43.734,290.592 43.705,291.005 43.689 C 291.657 43.664,292.333 43.272,292.333 42.918 C 292.333 42.792,292.539 42.665,292.792 42.636 C 293.149 42.595,293.261 42.484,293.302 42.135 C 293.342 41.789,293.455 41.675,293.802 41.635 C 294.148 41.595,294.262 41.481,294.302 41.136 C 294.340 40.800,294.470 40.663,294.821 40.586 C 295.168 40.510,295.284 40.390,295.269 40.119 C 295.254 39.839,295.365 39.735,295.750 39.668 C 296.148 39.599,296.267 39.479,296.333 39.082 C 296.393 38.726,296.510 38.583,296.744 38.583 C 296.988 38.583,297.110 38.415,297.227 37.917 C 297.313 37.550,297.555 37.100,297.764 36.917 C 297.973 36.733,298.199 36.358,298.266 36.083 C 298.332 35.808,298.530 35.482,298.705 35.358 C 298.879 35.234,298.981 35.023,298.930 34.891 C 298.879 34.758,298.902 34.689,298.982 34.739 C 299.061 34.788,299.161 34.402,299.204 33.881 C 299.248 33.360,299.370 32.905,299.476 32.869 C 299.582 32.834,299.632 32.745,299.586 32.671 C 299.541 32.598,299.634 32.548,299.793 32.560 C 300.051 32.581,300.089 32.368,300.130 30.643 C 300.172 28.899,300.209 28.695,300.494 28.620 C 301.357 28.394,301.467 23.301,300.625 22.577 C 300.175 22.190,300.167 22.149,300.167 20.281 C 300.167 18.455,300.151 18.368,299.755 18.071 C 299.329 17.751,299.153 17.250,299.134 16.303 C 299.121 15.643,298.908 15.333,298.470 15.333 C 298.292 15.333,298.191 15.263,298.244 15.177 C 298.472 14.808,298.119 13.638,297.726 13.459 C 297.510 13.360,297.333 13.142,297.333 12.975 C 297.333 12.807,297.108 12.469,296.833 12.224 C 296.558 11.979,296.333 11.678,296.333 11.556 C 296.333 11.418,296.136 11.333,295.813 11.333 C 295.323 11.333,295.298 11.304,295.392 10.833 C 295.488 10.353,295.469 10.333,294.900 10.333 C 294.356 10.333,294.311 10.296,294.346 9.875 C 294.412 9.061,294.176 8.544,293.695 8.446 C 293.450 8.397,293.175 8.188,293.083 7.981 C 292.992 7.775,292.673 7.526,292.376 7.428 C 292.079 7.330,291.645 7.043,291.411 6.791 C 291.178 6.539,290.848 6.333,290.679 6.333 C 290.510 6.333,290.254 6.154,290.110 5.934 C 289.900 5.614,289.646 5.511,288.833 5.417 C 288.022 5.323,287.766 5.219,287.558 4.902 L 287.298 4.505 263.909 4.501 C 250.197 4.499,240.483 4.560,240.428 4.648 M294.500 9.821 C 294.500 10.060,294.607 10.167,294.846 10.167 C 295.273 10.167,295.224 9.615,294.790 9.531 C 294.590 9.493,294.500 9.583,294.500 9.821 M295.615 10.608 C 295.379 10.844,295.512 11.167,295.846 11.167 C 296.079 11.167,296.174 11.076,296.137 10.889 C 296.078 10.582,295.793 10.429,295.615 10.608 M282.633 13.682 C 282.677 14.055,282.767 14.116,283.300 14.134 C 283.762 14.149,284.021 14.277,284.333 14.644 C 284.563 14.913,284.938 15.160,285.167 15.192 C 285.455 15.232,285.568 15.340,285.534 15.542 C 285.507 15.702,285.568 15.833,285.669 15.833 C 285.770 15.833,285.799 15.921,285.732 16.028 C 285.654 16.155,285.699 16.190,285.863 16.127 C 286.228 15.987,286.541 16.238,286.564 16.690 C 286.575 16.908,286.695 17.093,286.833 17.106 C 286.971 17.118,287.177 17.137,287.292 17.147 C 287.406 17.158,287.500 17.340,287.500 17.552 C 287.500 17.787,287.695 18.082,288.000 18.307 C 288.391 18.596,288.500 18.805,288.500 19.264 C 288.500 19.766,288.572 19.876,289.000 20.025 C 289.448 20.181,289.500 20.272,289.498 20.891 C 289.497 21.471,289.585 21.656,290.040 22.031 C 290.452 22.371,290.537 22.526,290.391 22.674 C 290.244 22.822,290.204 22.795,290.224 22.559 C 290.241 22.359,290.148 22.258,289.960 22.273 C 289.801 22.285,289.708 22.234,289.755 22.159 C 289.801 22.084,289.763 21.976,289.669 21.918 C 289.576 21.861,289.500 21.963,289.500 22.145 C 289.500 22.531,289.918 23.000,290.262 23.000 C 290.697 23.000,290.606 30.100,290.169 30.214 C 289.733 30.328,289.500 30.980,289.500 32.083 C 289.500 32.935,289.478 32.980,289.042 33.031 C 288.644 33.076,288.576 33.166,288.532 33.704 C 288.496 34.141,288.348 34.429,288.032 34.677 C 287.785 34.871,287.574 35.098,287.563 35.182 C 287.551 35.265,287.532 35.446,287.521 35.583 C 287.509 35.721,287.365 35.833,287.200 35.833 C 286.816 35.833,286.500 36.149,286.500 36.533 C 286.500 36.711,286.378 36.833,286.200 36.833 C 285.816 36.833,285.500 37.149,285.500 37.533 C 285.500 37.740,285.374 37.833,285.095 37.833 C 284.681 37.833,284.375 38.330,284.582 38.665 C 284.646 38.768,284.419 38.833,283.999 38.833 C 283.148 38.833,282.667 39.076,282.667 39.506 C 282.667 39.795,282.550 39.833,281.667 39.833 C 280.963 39.833,280.667 39.897,280.667 40.047 C 280.667 40.743,280.464 40.752,265.458 40.707 L 251.167 40.665 251.167 26.915 L 251.167 13.165 266.875 13.207 L 282.583 13.250 282.633 13.682 M300.917 25.486 C 300.917 26.922,300.873 27.269,300.708 27.132 C 300.572 27.019,300.500 26.475,300.500 25.556 C 300.500 24.671,300.577 24.065,300.708 23.916 C 300.823 23.786,300.917 23.676,300.917 23.673 C 300.917 23.670,300.917 24.485,300.917 25.486 M316.000 56.423 L 316.000 86.833 320.843 86.833 C 324.030 86.833,325.651 86.776,325.583 86.667 C 325.527 86.575,325.560 86.500,325.657 86.500 C 325.899 86.500,325.906 26.780,325.663 26.327 C 325.502 26.026,325.244 26.010,320.747 26.011 L 316.000 26.012 316.000 56.423 M368.197 33.208 C 368.230 33.445,368.357 33.575,368.540 33.560 C 368.699 33.548,368.793 33.597,368.748 33.670 C 368.703 33.744,369.510 33.809,370.541 33.816 L 372.417 33.829 372.857 34.345 C 373.099 34.628,373.436 34.846,373.607 34.828 C 374.620 34.721,375.000 34.831,375.000 35.232 C 375.000 35.705,375.271 35.833,376.264 35.833 C 376.981 35.833,377.114 35.959,377.018 36.546 C 377.007 36.616,377.223 36.720,377.499 36.775 C 377.774 36.830,378.000 36.935,378.000 37.009 C 378.000 37.268,378.546 37.685,378.771 37.598 C 378.897 37.550,379.000 37.583,379.000 37.672 C 379.000 37.761,379.080 37.833,379.179 37.833 C 379.406 37.833,379.833 38.256,379.833 38.481 C 379.833 38.575,380.082 38.698,380.387 38.755 C 380.818 38.836,380.938 38.940,380.929 39.221 C 380.920 39.496,381.027 39.596,381.375 39.636 C 381.627 39.665,381.842 39.778,381.853 39.886 C 381.863 39.995,381.882 40.196,381.894 40.333 C 381.907 40.470,382.010 40.592,382.125 40.604 C 382.240 40.615,382.441 40.634,382.572 40.646 C 382.704 40.657,382.835 40.873,382.864 41.125 C 382.893 41.377,383.010 41.593,383.125 41.604 C 383.240 41.616,383.446 41.634,383.583 41.646 C 383.745 41.659,383.833 41.843,383.833 42.167 C 383.833 42.442,383.911 42.667,384.007 42.667 C 384.366 42.667,384.808 43.271,384.861 43.833 C 384.898 44.216,385.003 44.417,385.167 44.417 C 385.578 44.417,385.773 44.714,385.879 45.499 C 385.934 45.908,386.040 46.264,386.114 46.291 C 386.770 46.522,386.750 46.192,386.750 56.984 L 386.750 67.314 386.375 67.664 C 386.169 67.856,385.991 68.085,385.979 68.173 C 385.968 68.261,385.940 68.408,385.917 68.500 C 385.894 68.592,385.866 68.854,385.854 69.083 C 385.842 69.317,385.732 69.500,385.603 69.500 C 385.285 69.500,384.833 70.231,384.833 70.744 C 384.833 71.046,384.744 71.167,384.520 71.167 C 384.175 71.167,383.757 71.575,383.888 71.786 C 384.008 71.981,383.625 72.417,383.333 72.417 C 383.196 72.417,383.094 72.547,383.106 72.707 C 383.119 72.866,383.062 72.955,382.981 72.905 C 382.900 72.855,382.833 72.895,382.833 72.994 C 382.833 73.094,382.646 73.246,382.417 73.333 C 382.162 73.430,382.000 73.623,382.000 73.829 C 382.000 74.059,381.890 74.167,381.657 74.167 C 381.468 74.167,381.359 74.241,381.415 74.331 C 381.472 74.423,381.411 74.456,381.279 74.405 C 381.123 74.345,381.004 74.461,380.934 74.740 C 380.840 75.114,380.575 75.259,380.121 75.185 C 380.050 75.174,379.948 75.386,379.894 75.657 C 379.803 76.108,379.730 76.154,379.023 76.200 C 378.420 76.239,378.215 76.329,378.093 76.608 C 378.002 76.815,377.669 77.046,377.308 77.154 C 376.654 77.350,376.109 77.772,376.239 77.982 C 376.281 78.050,376.038 78.082,375.699 78.054 C 375.272 78.019,375.019 78.090,374.875 78.284 C 374.759 78.439,374.667 78.475,374.667 78.365 C 374.667 77.988,374.173 78.168,374.068 78.583 C 373.964 79.001,373.340 79.123,371.892 79.009 C 371.695 78.993,371.272 79.210,370.953 79.490 L 370.373 80.000 368.121 80.000 C 366.244 80.000,365.853 79.957,365.770 79.742 C 365.631 79.380,364.571 78.972,363.854 79.005 C 362.198 79.080,361.889 79.020,361.903 78.625 C 361.915 78.295,361.802 78.232,360.958 78.098 C 360.360 78.003,360.000 77.865,360.000 77.729 C 360.000 77.455,359.593 77.242,358.792 77.098 C 358.317 77.012,358.167 76.905,358.167 76.654 C 358.167 76.227,357.741 76.065,357.383 76.356 C 357.190 76.513,357.142 76.519,357.228 76.375 C 357.304 76.248,357.262 76.167,357.121 76.167 C 356.993 76.167,356.688 75.942,356.443 75.667 C 356.198 75.392,355.854 75.167,355.679 75.167 C 355.459 75.167,355.325 75.009,355.249 74.663 C 355.188 74.385,355.051 74.169,354.944 74.182 C 354.478 74.239,354.155 74.154,354.251 73.999 C 354.436 73.699,354.176 73.238,353.807 73.210 C 353.416 73.181,353.132 72.858,353.282 72.614 C 353.334 72.531,353.164 72.294,352.905 72.087 C 352.646 71.881,352.350 71.463,352.247 71.159 C 352.145 70.855,351.916 70.526,351.739 70.428 C 351.562 70.330,351.388 70.234,351.352 70.214 C 351.317 70.194,351.280 70.006,351.269 69.797 C 351.258 69.579,351.144 69.417,351.000 69.417 C 350.563 69.417,350.333 69.044,350.333 68.335 C 350.333 67.924,350.267 67.688,350.169 67.749 C 350.072 67.808,350.047 67.737,350.109 67.578 C 350.191 67.364,350.127 67.317,349.815 67.361 C 349.442 67.413,349.411 67.354,349.321 66.417 C 349.208 65.238,349.072 64.883,348.647 64.656 C 348.407 64.528,348.333 64.301,348.333 63.694 C 348.333 63.257,348.240 62.799,348.125 62.676 C 347.958 62.496,347.958 62.475,348.125 62.569 C 348.382 62.714,348.403 62.275,348.161 61.822 C 347.982 61.488,347.500 61.374,347.500 61.667 C 347.500 61.758,347.594 61.815,347.708 61.792 C 347.823 61.769,347.898 61.844,347.875 61.958 C 347.852 62.073,347.921 62.167,348.028 62.167 C 348.135 62.167,348.173 62.216,348.112 62.277 C 347.335 63.054,346.853 53.099,347.614 52.000 C 347.773 51.771,348.004 51.480,348.127 51.354 C 348.251 51.228,348.339 50.965,348.324 50.771 C 348.216 49.383,348.343 48.466,348.656 48.384 C 349.064 48.278,349.333 47.518,349.333 46.475 C 349.333 45.868,349.395 45.667,349.583 45.667 C 349.721 45.667,349.833 45.592,349.833 45.500 C 349.833 45.408,349.927 45.352,350.042 45.375 C 350.247 45.416,350.280 45.274,350.316 44.219 C 350.331 43.770,350.403 43.681,350.792 43.636 C 351.174 43.592,351.259 43.493,351.302 43.042 C 351.335 42.705,351.482 42.432,351.693 42.319 C 351.907 42.205,352.002 42.025,351.951 41.832 C 351.902 41.643,351.946 41.554,352.066 41.600 C 352.179 41.643,352.275 41.488,352.297 41.226 C 352.342 40.683,352.337 40.689,352.843 40.613 C 353.139 40.569,353.264 40.432,353.303 40.109 C 353.350 39.716,353.561 39.579,354.027 39.642 C 354.088 39.650,354.215 39.434,354.310 39.162 C 354.426 38.830,354.595 38.667,354.825 38.667 C 355.058 38.667,355.167 38.558,355.167 38.325 C 355.167 38.095,355.330 37.926,355.667 37.808 C 356.035 37.680,356.167 37.529,356.167 37.234 C 356.167 36.870,356.332 36.748,356.728 36.820 C 357.101 36.888,357.974 36.452,358.050 36.160 C 358.105 35.950,358.279 35.833,358.536 35.833 C 358.789 35.833,359.074 35.648,359.307 35.333 C 359.611 34.923,359.796 34.833,360.344 34.833 C 361.065 34.833,361.833 34.437,361.833 34.064 C 361.833 33.835,362.615 33.771,364.889 33.813 C 365.570 33.825,365.762 33.754,366.139 33.350 C 366.743 32.702,368.111 32.608,368.197 33.208 M342.724 36.257 C 342.670 36.399,342.669 36.558,342.722 36.611 C 342.890 36.779,343.333 36.521,343.333 36.255 C 343.333 35.923,342.852 35.924,342.724 36.257 M281.833 48.921 C 281.833 49.296,282.541 49.500,283.839 49.500 C 284.925 49.500,285.011 49.528,285.360 50.000 C 285.647 50.389,285.858 50.500,286.310 50.500 C 286.911 50.500,287.500 50.884,287.500 51.276 C 287.500 51.414,287.692 51.500,288.000 51.500 C 288.419 51.500,288.500 51.566,288.500 51.907 C 288.500 52.131,288.587 52.367,288.692 52.433 C 288.806 52.503,288.840 52.479,288.776 52.375 C 288.704 52.260,288.812 52.265,289.082 52.391 C 289.310 52.497,289.507 52.677,289.520 52.792 C 289.532 52.906,289.551 53.094,289.563 53.208 C 289.574 53.323,289.790 53.440,290.042 53.469 C 290.404 53.511,290.500 53.609,290.500 53.934 C 290.500 54.443,290.982 55.209,291.241 55.110 C 291.355 55.066,291.448 55.244,291.471 55.551 C 291.512 56.087,291.590 56.236,291.847 56.271 C 291.931 56.282,292.065 56.301,292.144 56.313 C 292.223 56.324,292.336 56.750,292.396 57.260 C 292.477 57.950,292.611 58.280,292.917 58.552 C 293.286 58.879,293.335 59.070,293.385 60.389 C 293.425 61.433,293.511 61.905,293.679 62.011 C 293.855 62.123,293.861 62.162,293.702 62.164 C 293.541 62.166,293.483 62.616,293.471 63.958 C 293.430 68.541,293.453 68.309,293.044 68.412 C 292.640 68.513,292.443 69.027,292.426 70.020 C 292.420 70.401,292.346 70.596,292.226 70.550 C 291.955 70.447,291.500 71.158,291.500 71.683 C 291.500 72.044,291.405 72.144,290.982 72.229 C 290.616 72.302,290.492 72.404,290.558 72.578 C 290.664 72.854,290.260 73.333,289.921 73.333 C 289.799 73.333,289.621 73.558,289.525 73.833 C 289.429 74.108,289.232 74.333,289.088 74.333 C 288.943 74.333,288.754 74.521,288.667 74.750 C 288.567 75.013,288.378 75.167,288.156 75.167 C 287.920 75.167,287.744 75.328,287.619 75.659 C 287.490 76.000,287.302 76.166,287.008 76.201 C 286.774 76.228,286.574 76.344,286.563 76.458 C 286.551 76.573,286.532 76.772,286.521 76.901 C 286.508 77.050,286.379 77.104,286.167 77.048 C 285.984 77.000,285.649 77.082,285.423 77.231 C 285.197 77.379,284.897 77.500,284.756 77.500 C 284.615 77.500,284.500 77.601,284.500 77.724 C 284.500 78.092,281.377 78.165,265.708 78.166 L 251.167 78.167 251.167 63.417 L 251.167 48.667 266.500 48.667 C 280.129 48.667,281.833 48.695,281.833 48.921 M302.907 56.649 C 302.856 56.699,302.755 56.642,302.681 56.523 C 302.607 56.403,302.487 56.330,302.414 56.361 C 302.341 56.392,302.261 56.277,302.236 56.107 C 302.196 55.832,302.235 55.839,302.595 56.177 C 302.817 56.386,302.957 56.598,302.907 56.649 M294.289 64.625 C 294.255 65.060,294.227 64.704,294.227 63.833 C 294.227 62.962,294.255 62.606,294.289 63.042 C 294.324 63.477,294.324 64.190,294.289 64.625 M303.656 70.596 C 303.549 70.725,303.392 70.786,303.306 70.733 C 303.214 70.676,303.230 70.542,303.344 70.404 C 303.451 70.275,303.608 70.214,303.694 70.267 C 303.786 70.324,303.770 70.458,303.656 70.596 M301.708 75.277 C 301.594 75.323,301.500 75.434,301.500 75.524 C 301.500 75.613,301.587 75.633,301.692 75.567 C 301.816 75.491,301.839 75.522,301.757 75.655 C 301.672 75.793,301.573 75.807,301.462 75.696 C 301.266 75.499,301.434 75.161,301.718 75.180 C 301.861 75.189,301.859 75.216,301.708 75.277 " stroke="none" fill="#045c8c" fill-rule="evenodd"></path><path id="path1" d="M216.748 1.875 C 216.698 2.081,216.678 4.912,216.704 8.167 L 216.750 14.083 221.625 14.128 L 226.500 14.172 226.500 7.836 L 226.500 1.500 221.670 1.500 L 216.840 1.500 216.748 1.875 M386.707 18.552 C 386.683 27.846,386.605 34.148,386.516 34.093 C 386.432 34.042,386.451 34.183,386.557 34.408 C 386.774 34.868,386.872 25.061,386.792 10.862 C 386.767 6.492,386.729 9.952,386.707 18.552 M34.938 5.021 C 34.880 5.307,34.833 5.752,34.833 6.009 C 34.833 6.367,34.745 6.489,34.458 6.530 C 34.137 6.576,34.071 6.710,33.994 7.472 C 33.925 8.156,33.811 8.432,33.500 8.666 C 33.154 8.928,33.086 9.140,33.030 10.143 C 32.966 11.266,32.945 11.317,32.523 11.366 C 32.112 11.413,32.080 11.478,32.033 12.375 C 31.991 13.191,31.936 13.333,31.664 13.333 C 31.222 13.333,31.000 13.829,31.000 14.817 C 31.000 15.557,30.940 15.701,30.500 16.026 C 30.054 16.356,30.000 16.491,30.000 17.281 C 30.000 17.938,29.938 18.167,29.762 18.167 C 29.287 18.167,29.000 18.674,29.000 19.512 C 29.000 20.125,28.938 20.333,28.754 20.333 C 28.359 20.333,28.000 21.243,28.000 22.242 C 28.000 23.106,27.974 23.167,27.601 23.167 C 27.130 23.167,27.000 23.438,27.000 24.419 C 27.000 25.043,26.948 25.151,26.625 25.197 C 26.311 25.241,26.225 25.399,26.097 26.167 C 26.004 26.720,25.825 27.168,25.645 27.297 C 25.296 27.545,25.002 28.490,25.001 29.363 C 25.000 29.872,24.936 29.986,24.625 30.030 C 24.293 30.077,24.244 30.193,24.200 31.042 C 24.159 31.824,24.097 32.000,23.858 32.000 C 23.354 32.000,23.167 32.369,23.167 33.362 C 23.167 34.237,23.122 34.357,22.667 34.693 C 22.220 35.023,22.167 35.158,22.167 35.948 C 22.167 36.689,22.118 36.833,21.867 36.833 C 21.365 36.833,21.167 37.192,21.167 38.097 C 21.167 38.819,21.112 38.975,20.835 39.048 C 20.400 39.162,20.167 39.813,20.167 40.916 C 20.167 41.769,20.145 41.814,19.708 41.864 C 19.275 41.914,19.247 41.969,19.200 42.864 C 19.157 43.690,19.104 43.819,18.790 43.864 C 18.387 43.923,18.209 44.382,18.183 45.431 C 18.170 45.965,18.059 46.207,17.667 46.557 C 17.239 46.938,17.167 47.122,17.167 47.823 C 17.167 48.547,17.123 48.650,16.792 48.697 C 16.477 48.741,16.390 48.903,16.250 49.702 C 16.149 50.279,15.964 50.741,15.782 50.874 C 15.579 51.022,15.420 51.484,15.295 52.286 C 15.135 53.321,15.060 53.491,14.722 53.575 C 14.374 53.663,14.333 53.769,14.333 54.587 C 14.333 55.267,14.273 55.500,14.095 55.500 C 13.595 55.500,13.333 56.005,13.333 56.970 C 13.332 57.836,13.290 57.945,12.833 58.250 C 12.376 58.556,12.334 58.663,12.334 59.542 C 12.333 60.441,12.309 60.500,11.934 60.500 C 11.471 60.500,11.333 60.772,11.333 61.684 C 11.333 62.222,11.262 62.369,10.939 62.491 C 10.451 62.677,10.333 62.971,10.333 64.009 C 10.333 64.721,10.270 64.870,9.833 65.193 C 9.387 65.523,9.333 65.658,9.333 66.448 C 9.333 67.226,9.292 67.333,8.996 67.333 C 8.603 67.333,8.333 67.912,8.333 68.755 C 8.333 69.141,8.232 69.376,8.018 69.491 C 7.618 69.705,7.333 70.511,7.333 71.430 C 7.333 72.043,7.281 72.151,6.958 72.197 C 6.642 72.242,6.560 72.397,6.434 73.193 C 6.318 73.920,6.200 74.174,5.917 74.303 C 5.612 74.442,5.533 74.650,5.453 75.525 C 5.375 76.384,5.278 76.648,4.929 76.948 C 4.576 77.252,4.500 77.463,4.500 78.142 C 4.500 78.909,4.465 78.980,4.000 79.142 C 3.527 79.307,3.500 79.365,3.500 80.222 C 3.500 80.986,3.448 81.141,3.169 81.214 C 2.733 81.328,2.500 81.980,2.500 83.083 C 2.500 83.935,2.478 83.980,2.042 84.031 C 1.587 84.083,1.583 84.096,1.535 85.461 L 1.486 86.838 6.868 86.794 L 12.250 86.750 12.299 86.328 C 12.328 86.084,12.503 85.838,12.716 85.745 C 13.027 85.608,13.109 85.379,13.250 84.250 C 13.398 83.064,13.457 82.911,13.784 82.864 C 14.106 82.819,14.157 82.696,14.200 81.866 C 14.242 81.073,14.304 80.910,14.583 80.857 C 15.060 80.768,15.160 80.536,15.171 79.500 C 15.180 78.693,15.240 78.534,15.674 78.174 C 16.106 77.816,16.167 77.658,16.167 76.883 C 16.167 76.116,16.210 76.000,16.494 76.000 C 16.942 76.000,17.167 75.511,17.167 74.539 C 17.167 73.841,17.240 73.657,17.667 73.276 C 18.098 72.892,18.167 72.715,18.167 71.983 C 18.167 71.265,18.220 71.122,18.513 71.045 C 18.938 70.934,19.167 70.371,19.167 69.433 C 19.167 68.853,19.259 68.640,19.667 68.276 C 20.093 67.896,20.167 67.711,20.167 67.017 C 20.167 66.300,20.214 66.191,20.561 66.104 C 20.968 66.002,21.161 65.409,21.165 64.248 C 21.166 63.908,21.301 63.645,21.583 63.433 C 21.822 63.254,22.000 62.952,22.000 62.727 L 22.000 62.333 39.732 62.333 L 57.464 62.333 57.564 62.732 C 57.623 62.966,57.828 63.171,58.062 63.230 C 58.423 63.320,58.468 63.436,58.532 64.438 C 58.593 65.398,58.662 65.594,59.051 65.905 C 59.419 66.198,59.500 66.398,59.500 67.015 C 59.500 67.815,59.713 68.167,60.200 68.167 C 60.456 68.167,60.500 68.315,60.500 69.167 C 60.500 69.717,60.574 70.167,60.665 70.167 C 61.196 70.167,61.500 70.757,61.500 71.791 C 61.500 72.742,61.537 72.856,61.894 72.991 C 62.355 73.167,62.500 73.474,62.500 74.279 C 62.500 74.684,62.615 74.956,62.875 75.167 C 63.164 75.400,63.288 75.751,63.417 76.693 C 63.561 77.751,63.631 77.924,63.938 77.967 C 64.240 78.010,64.305 78.155,64.368 78.921 C 64.429 79.652,64.528 79.891,64.888 80.174 C 65.231 80.444,65.333 80.670,65.333 81.158 C 65.333 82.363,65.503 82.833,65.938 82.833 C 66.304 82.833,66.333 82.898,66.333 83.719 C 66.333 84.509,66.387 84.644,66.833 84.974 C 67.260 85.289,67.333 85.454,67.333 86.091 L 67.333 86.838 72.708 86.794 L 78.083 86.750 78.136 85.917 C 78.221 84.562,78.057 84.000,77.576 84.000 C 77.198 84.000,77.167 83.939,77.167 83.192 C 77.167 82.158,76.893 81.375,76.486 81.246 C 76.232 81.165,76.166 80.985,76.164 80.364 C 76.161 79.466,76.049 79.230,75.583 79.143 C 75.305 79.091,75.242 78.927,75.201 78.162 C 75.158 77.356,75.092 77.203,74.660 76.913 C 74.211 76.613,74.168 76.499,74.167 75.637 C 74.167 74.677,73.905 74.167,73.413 74.167 C 73.250 74.167,73.169 73.887,73.133 73.208 C 73.086 72.301,73.059 72.247,72.625 72.197 C 72.188 72.147,72.167 72.102,72.167 71.250 C 72.167 70.150,71.958 69.562,71.518 69.422 C 71.243 69.335,71.174 69.146,71.133 68.366 C 71.090 67.541,71.036 67.410,70.726 67.366 C 70.427 67.323,70.351 67.164,70.252 66.377 C 70.164 65.672,70.036 65.362,69.734 65.125 C 69.491 64.933,69.333 64.634,69.331 64.363 C 69.327 63.279,69.121 62.641,68.726 62.491 C 68.387 62.362,68.333 62.229,68.333 61.523 C 68.333 60.813,68.267 60.652,67.835 60.310 C 67.446 60.003,67.336 59.784,67.335 59.313 C 67.332 58.188,67.152 57.669,66.729 57.563 C 66.389 57.478,66.333 57.362,66.333 56.746 C 66.333 55.771,66.203 55.500,65.732 55.500 C 65.360 55.500,65.333 55.439,65.333 54.591 C 65.333 53.553,65.085 52.883,64.649 52.745 C 64.415 52.670,64.339 52.441,64.300 51.700 C 64.253 50.802,64.225 50.747,63.792 50.697 C 63.349 50.646,63.333 50.611,63.333 49.656 C 63.333 49.107,63.259 48.667,63.167 48.667 C 62.705 48.667,62.333 47.980,62.331 47.125 C 62.328 46.129,62.235 45.926,61.708 45.761 C 61.380 45.659,61.333 45.532,61.333 44.742 C 61.333 43.919,61.297 43.831,60.917 43.735 C 60.568 43.648,60.500 43.532,60.499 43.024 C 60.498 42.102,60.179 41.139,59.848 41.052 C 59.632 40.996,59.515 40.706,59.403 39.946 C 59.271 39.061,59.197 38.909,58.875 38.863 C 58.544 38.816,58.500 38.714,58.500 37.990 C 58.500 37.288,58.428 37.105,58.000 36.724 C 57.607 36.374,57.496 36.132,57.483 35.597 C 57.458 34.549,57.280 34.090,56.876 34.031 C 56.562 33.986,56.510 33.857,56.466 33.031 C 56.419 32.135,56.392 32.080,55.958 32.031 C 55.522 31.980,55.500 31.935,55.500 31.083 C 55.500 29.980,55.267 29.328,54.831 29.214 C 54.552 29.141,54.500 28.986,54.500 28.216 C 54.500 27.356,54.472 27.294,54.000 27.116 C 53.535 26.940,53.500 26.868,53.500 26.078 C 53.500 25.331,53.441 25.186,53.008 24.866 C 52.567 24.540,52.511 24.393,52.466 23.459 C 52.424 22.576,52.362 22.392,52.056 22.258 C 51.778 22.136,51.662 21.886,51.556 21.175 C 51.438 20.393,51.359 20.242,51.042 20.197 C 50.731 20.153,50.667 20.039,50.666 19.530 C 50.664 18.655,50.370 17.712,50.020 17.463 C 49.838 17.334,49.678 16.933,49.611 16.445 C 49.479 15.466,49.405 15.333,48.990 15.333 C 48.711 15.333,48.667 15.213,48.667 14.448 C 48.667 13.658,48.613 13.523,48.167 13.193 C 47.743 12.880,47.667 12.712,47.667 12.089 C 47.667 11.137,47.438 10.556,47.010 10.420 C 46.727 10.330,46.667 10.172,46.667 9.522 C 46.667 8.697,46.458 8.333,45.986 8.333 C 45.758 8.333,45.692 8.125,45.635 7.227 C 45.574 6.269,45.504 6.072,45.116 5.762 C 44.826 5.532,44.667 5.243,44.667 4.952 L 44.667 4.500 39.854 4.500 L 35.042 4.500 34.938 5.021 M282.083 13.280 C 282.267 13.331,282.479 13.457,282.554 13.561 C 282.645 13.686,282.669 13.665,282.625 13.500 C 282.588 13.362,282.376 13.236,282.154 13.219 C 281.835 13.195,281.820 13.208,282.083 13.280 M40.439 19.066 C 40.745 19.161,40.805 19.332,40.865 20.278 C 40.926 21.231,40.996 21.428,41.384 21.738 C 41.769 22.045,41.833 22.221,41.833 22.969 C 41.833 23.798,41.857 23.846,42.316 23.938 C 42.784 24.032,42.800 24.068,42.864 25.204 C 42.918 26.161,42.997 26.427,43.297 26.671 C 43.550 26.875,43.705 27.247,43.793 27.859 C 43.900 28.608,43.980 28.759,44.293 28.803 C 44.612 28.849,44.667 28.959,44.668 29.553 C 44.669 30.596,44.974 31.524,45.346 31.622 C 45.584 31.684,45.671 31.862,45.683 32.311 C 45.710 33.277,45.897 33.745,46.280 33.801 C 46.585 33.845,46.638 33.989,46.699 34.948 C 46.759 35.886,46.834 36.101,47.218 36.431 C 47.565 36.730,47.667 36.967,47.667 37.478 C 47.667 38.395,47.804 38.667,48.268 38.667 C 48.640 38.667,48.667 38.728,48.667 39.572 C 48.667 40.686,48.899 41.338,49.335 41.452 C 49.612 41.525,49.667 41.681,49.667 42.403 C 49.667 43.308,49.865 43.667,50.367 43.667 C 50.619 43.667,50.667 43.811,50.667 44.572 C 50.667 45.682,50.874 46.271,51.316 46.411 C 51.591 46.498,51.659 46.687,51.700 47.467 C 51.747 48.365,51.775 48.420,52.208 48.469 C 52.656 48.521,52.667 48.548,52.667 49.602 C 52.667 50.531,52.725 50.740,53.083 51.098 C 53.382 51.397,53.529 51.770,53.606 52.426 C 53.697 53.203,53.772 53.353,54.107 53.437 C 54.407 53.513,54.500 53.651,54.500 54.018 L 54.500 54.500 39.750 54.500 C 23.761 54.500,24.294 54.532,25.500 53.640 C 25.946 53.310,26.000 53.176,26.000 52.385 C 26.000 51.729,26.062 51.500,26.238 51.500 C 26.733 51.500,27.000 50.995,27.000 50.061 C 27.000 49.248,27.056 49.098,27.500 48.724 C 27.941 48.354,28.000 48.198,28.000 47.413 C 28.000 46.622,28.041 46.517,28.368 46.470 C 28.780 46.410,28.958 45.959,28.983 44.903 C 28.996 44.368,29.107 44.126,29.500 43.776 C 29.929 43.394,30.000 43.213,30.000 42.499 C 30.000 41.903,30.065 41.667,30.230 41.667 C 30.631 41.667,30.852 41.218,30.945 40.220 C 31.015 39.462,31.124 39.174,31.443 38.903 C 31.756 38.637,31.874 38.335,31.949 37.611 C 32.027 36.859,32.106 36.667,32.339 36.667 C 32.699 36.667,32.833 36.341,32.833 35.470 C 32.833 34.748,33.273 33.833,33.619 33.833 C 33.770 33.833,33.833 33.537,33.833 32.833 C 33.833 31.950,33.872 31.833,34.161 31.833 C 34.611 31.833,34.833 31.343,34.833 30.349 C 34.833 29.610,34.893 29.466,35.333 29.140 C 35.780 28.810,35.833 28.676,35.833 27.881 C 35.833 27.099,35.881 26.974,36.227 26.842 C 36.716 26.656,36.833 26.362,36.833 25.325 C 36.833 24.613,36.896 24.463,37.333 24.140 C 37.778 23.811,37.833 23.674,37.833 22.897 C 37.833 22.123,37.875 22.017,38.202 21.970 C 38.626 21.909,38.792 21.455,38.817 20.292 C 38.826 19.856,38.900 19.500,38.983 19.500 C 39.065 19.500,39.307 19.318,39.522 19.095 C 39.736 18.872,39.950 18.750,39.997 18.822 C 40.045 18.895,40.243 19.005,40.439 19.066 M300.550 22.503 C 300.785 22.688,301.010 23.007,301.049 23.212 L 301.121 23.583 301.144 23.208 C 301.167 22.821,300.644 22.167,300.311 22.167 C 300.207 22.167,300.314 22.318,300.550 22.503 M172.250 25.146 C 171.900 25.220,171.734 25.364,171.697 25.626 C 171.647 25.975,171.561 26.000,170.419 26.000 C 168.925 26.000,168.667 26.089,168.667 26.601 C 168.667 26.978,168.610 27.000,167.667 27.000 C 166.966 27.000,166.667 27.064,166.667 27.213 C 166.667 27.612,166.009 28.000,165.331 28.000 C 164.886 28.000,164.667 28.074,164.667 28.224 C 164.667 28.613,164.108 28.973,163.417 29.029 C 162.829 29.077,162.744 29.138,162.697 29.542 C 162.653 29.926,162.565 30.000,162.156 30.000 C 161.857 30.000,161.667 30.087,161.667 30.224 C 161.667 30.559,161.154 30.948,160.542 31.078 C 160.162 31.159,159.970 31.311,159.901 31.587 C 159.834 31.855,159.662 31.997,159.366 32.032 C 159.061 32.068,158.901 32.207,158.834 32.494 C 158.774 32.749,158.584 32.941,158.333 33.000 C 158.085 33.059,157.892 33.252,157.833 33.500 C 157.774 33.751,157.582 33.941,157.327 34.001 C 157.040 34.068,156.901 34.228,156.865 34.533 C 156.831 34.829,156.688 35.000,156.420 35.068 C 156.144 35.137,155.992 35.328,155.911 35.708 C 155.781 36.320,155.392 36.833,155.058 36.833 C 154.920 36.833,154.833 37.026,154.833 37.333 C 154.833 37.704,154.756 37.833,154.533 37.833 C 154.042 37.833,153.833 38.187,153.833 39.022 C 153.833 39.759,153.803 39.815,153.375 39.864 C 152.972 39.910,152.910 39.996,152.863 40.578 C 152.823 41.068,152.682 41.345,152.321 41.644 C 151.905 41.989,151.833 42.166,151.833 42.854 C 151.833 43.565,151.786 43.672,151.435 43.760 C 150.981 43.874,150.833 44.364,150.833 45.753 C 150.833 46.536,150.791 46.641,150.440 46.729 C 149.965 46.849,149.833 47.550,149.833 49.962 C 149.833 51.437,149.805 51.572,149.417 51.931 L 149.000 52.317 149.000 56.239 L 149.000 60.160 149.396 60.260 C 149.787 60.358,149.794 60.395,149.865 62.805 C 149.937 65.267,150.104 66.000,150.589 66.000 C 150.774 66.000,150.833 66.223,150.833 66.922 C 150.833 67.981,151.197 69.000,151.575 69.000 C 151.736 69.000,151.833 69.149,151.833 69.396 C 151.833 70.285,152.050 70.860,152.440 71.009 C 152.731 71.120,152.833 71.287,152.833 71.652 C 152.833 72.426,153.115 73.000,153.496 73.000 C 153.758 73.000,153.833 73.109,153.833 73.491 C 153.833 73.859,153.958 74.055,154.333 74.277 C 154.693 74.489,154.833 74.699,154.833 75.022 C 154.833 75.726,155.002 76.000,155.434 76.000 C 155.767 76.000,155.833 76.084,155.833 76.500 C 155.833 76.944,155.889 77.000,156.333 77.000 C 156.778 77.000,156.833 77.056,156.833 77.500 C 156.833 77.796,156.921 78.000,157.047 78.000 C 157.165 78.000,157.394 78.225,157.557 78.500 C 157.719 78.775,157.944 79.000,158.057 79.000 C 158.169 79.000,158.394 79.225,158.557 79.500 C 158.719 79.775,158.944 80.000,159.057 80.000 C 159.169 80.000,159.394 80.225,159.557 80.500 C 159.753 80.832,159.985 81.000,160.248 81.000 C 160.557 81.000,160.656 81.102,160.697 81.458 C 160.739 81.818,160.848 81.928,161.208 81.969 C 161.537 82.007,161.667 82.116,161.667 82.353 C 161.667 82.573,161.839 82.744,162.179 82.862 C 162.460 82.961,162.755 83.212,162.835 83.420 C 162.948 83.719,163.156 83.824,163.813 83.914 C 164.498 84.008,164.656 84.093,164.699 84.389 C 164.743 84.704,164.871 84.756,165.708 84.800 C 166.647 84.849,166.667 84.860,166.667 85.342 C 166.667 85.831,166.672 85.833,167.656 85.833 C 168.611 85.833,168.646 85.849,168.697 86.292 C 168.750 86.746,168.763 86.750,170.125 86.798 C 171.308 86.840,171.500 86.888,171.500 87.140 C 171.500 87.752,171.828 87.833,174.283 87.833 C 175.784 87.833,176.667 87.896,176.667 88.002 C 176.667 89.050,183.986 89.245,184.137 88.202 C 184.189 87.841,184.242 87.833,186.584 87.833 C 189.128 87.833,189.813 87.697,189.952 87.165 C 190.026 86.882,190.181 86.833,191.009 86.833 C 192.176 86.833,192.836 86.609,192.950 86.172 C 193.019 85.909,193.208 85.840,193.976 85.799 C 194.864 85.753,194.920 85.724,194.969 85.292 C 195.019 84.860,195.071 84.833,195.848 84.833 C 196.563 84.833,196.699 84.778,196.860 84.425 C 196.969 84.185,197.243 83.973,197.523 83.912 C 197.785 83.854,198.000 83.709,198.000 83.589 C 198.000 83.353,198.966 82.833,199.404 82.833 C 199.553 82.833,199.745 82.648,199.832 82.421 C 199.918 82.195,200.172 81.963,200.396 81.907 C 200.642 81.845,200.845 81.644,200.905 81.402 C 200.971 81.139,201.126 81.000,201.351 81.000 C 201.581 81.000,201.758 80.834,201.884 80.500 C 201.999 80.195,202.192 80.000,202.379 80.000 C 202.566 80.000,202.749 79.813,202.853 79.515 C 202.957 79.218,203.178 78.991,203.428 78.929 C 203.703 78.860,203.833 78.710,203.833 78.461 C 203.833 78.260,204.026 77.943,204.260 77.755 C 204.552 77.523,204.717 77.193,204.781 76.716 C 204.862 76.116,204.936 76.011,205.312 75.967 C 205.721 75.920,205.753 75.853,205.800 74.969 C 205.846 74.077,205.876 74.018,206.300 73.969 C 207.095 73.877,206.986 72.167,206.186 72.167 C 206.035 72.167,205.838 72.000,205.748 71.797 C 205.552 71.357,205.075 71.206,203.809 71.183 C 203.006 71.169,202.790 71.093,202.333 70.667 C 201.828 70.195,201.721 70.167,200.426 70.167 C 199.124 70.167,199.044 70.145,198.864 69.750 C 198.706 69.404,198.558 69.333,197.986 69.333 C 197.451 69.333,197.225 69.426,196.970 69.750 C 196.790 69.979,196.546 70.167,196.427 70.167 C 196.298 70.167,196.170 70.471,196.108 70.927 C 196.006 71.671,195.701 72.167,195.345 72.167 C 195.247 72.167,195.167 72.387,195.167 72.656 C 195.167 73.065,195.092 73.153,194.708 73.197 C 194.351 73.238,194.239 73.349,194.198 73.698 C 194.158 74.045,194.045 74.158,193.698 74.198 C 193.349 74.239,193.238 74.351,193.197 74.708 C 193.153 75.092,193.065 75.167,192.656 75.167 C 192.225 75.167,192.167 75.226,192.167 75.658 C 192.167 76.133,192.138 76.151,191.292 76.200 C 190.542 76.243,190.409 76.301,190.366 76.608 C 190.328 76.871,190.157 76.996,189.722 77.078 C 189.396 77.139,188.958 77.360,188.749 77.569 C 188.512 77.807,188.070 77.991,187.576 78.059 C 186.728 78.175,186.333 78.401,186.333 78.770 C 186.333 78.946,186.007 79.004,184.958 79.017 C 183.261 79.037,182.796 79.157,182.585 79.630 C 182.427 79.986,182.334 80.000,180.155 80.000 L 177.888 80.000 177.443 79.500 C 177.019 79.024,176.934 79.000,175.677 79.000 C 174.521 79.000,174.343 78.960,174.254 78.681 C 174.147 78.344,173.379 78.000,172.733 78.000 C 172.521 78.000,172.159 77.811,171.929 77.580 C 171.698 77.349,171.288 77.116,171.018 77.062 C 170.683 76.995,170.495 76.837,170.427 76.565 C 170.348 76.250,170.215 76.166,169.788 76.161 C 169.246 76.156,168.500 75.685,168.500 75.348 C 168.500 75.248,168.275 75.167,168.000 75.167 C 167.556 75.167,167.500 75.111,167.500 74.667 C 167.500 74.222,167.444 74.167,167.000 74.167 C 166.556 74.167,166.500 74.111,166.500 73.667 C 166.500 73.251,166.433 73.167,166.104 73.167 C 165.798 73.167,165.686 73.054,165.608 72.667 C 165.553 72.392,165.403 72.167,165.273 72.167 C 165.036 72.167,164.584 71.366,164.473 70.750 C 164.438 70.556,164.257 70.394,164.040 70.363 C 163.781 70.326,163.667 70.196,163.667 69.938 C 163.667 69.489,163.374 69.167,162.967 69.167 C 162.729 69.167,162.667 69.031,162.667 68.514 C 162.667 67.605,162.528 67.333,162.066 67.333 C 161.695 67.333,161.667 67.271,161.667 66.448 C 161.667 65.658,161.613 65.523,161.167 65.193 C 160.689 64.840,160.667 64.767,160.667 63.589 C 160.667 62.113,160.472 61.500,160.004 61.500 C 159.673 61.500,159.667 61.409,159.667 56.456 L 159.667 51.412 160.036 51.248 C 160.509 51.037,160.630 50.573,160.650 48.875 C 160.666 47.540,160.678 47.500,161.066 47.500 C 161.537 47.500,161.667 47.229,161.667 46.248 C 161.667 45.623,161.718 45.516,162.042 45.470 C 162.351 45.426,162.444 45.265,162.571 44.549 C 162.693 43.860,162.796 43.672,163.071 43.633 C 163.327 43.596,163.462 43.394,163.593 42.851 C 163.702 42.401,163.942 41.982,164.218 41.762 C 164.465 41.565,164.667 41.238,164.667 41.035 C 164.667 40.756,164.765 40.667,165.070 40.667 C 165.383 40.667,165.498 40.554,165.583 40.167 C 165.668 39.779,165.784 39.667,166.097 39.667 C 166.412 39.667,166.500 39.579,166.500 39.263 C 166.500 38.951,166.612 38.835,167.000 38.750 C 167.388 38.665,167.500 38.549,167.500 38.237 C 167.500 37.926,167.589 37.833,167.885 37.833 C 168.116 37.833,168.412 37.642,168.623 37.357 C 168.871 37.022,169.177 36.848,169.652 36.772 C 170.190 36.686,170.349 36.579,170.432 36.248 C 170.506 35.955,170.650 35.833,170.924 35.833 C 171.550 35.833,172.192 35.521,172.284 35.172 C 172.353 34.909,172.541 34.840,173.309 34.799 C 174.197 34.753,174.253 34.724,174.303 34.292 L 174.355 33.833 176.582 33.833 C 178.882 33.833,179.333 33.708,179.333 33.071 C 179.333 32.905,179.533 32.833,180.000 32.833 C 180.476 32.833,180.667 32.903,180.667 33.079 C 180.667 33.590,181.573 33.833,183.474 33.833 C 185.271 33.833,185.306 33.841,185.833 34.333 C 186.285 34.756,186.503 34.833,187.231 34.833 C 188.036 34.833,188.106 34.867,188.282 35.333 C 188.443 35.760,188.558 35.833,189.064 35.833 C 189.529 35.833,189.736 35.941,190.026 36.333 C 190.252 36.638,190.546 36.833,190.781 36.833 C 191.061 36.833,191.167 36.929,191.167 37.181 C 191.167 37.413,191.330 37.591,191.657 37.714 C 191.941 37.821,192.188 38.060,192.243 38.283 C 192.311 38.551,192.461 38.667,192.742 38.667 C 193.057 38.667,193.156 38.766,193.197 39.125 C 193.238 39.482,193.349 39.595,193.698 39.635 C 194.045 39.675,194.158 39.789,194.198 40.135 C 194.239 40.484,194.351 40.595,194.708 40.636 C 195.092 40.680,195.167 40.768,195.167 41.178 C 195.167 41.465,195.255 41.667,195.381 41.667 C 195.498 41.667,195.728 41.892,195.890 42.167 L 196.186 42.667 198.435 42.667 L 200.684 42.667 200.856 42.173 C 201.026 41.687,201.047 41.679,202.389 41.632 C 203.736 41.584,203.751 41.579,203.803 41.125 C 203.854 40.682,203.889 40.667,204.851 40.667 L 205.847 40.667 205.798 39.292 C 205.750 37.929,205.746 37.916,205.292 37.864 C 204.893 37.818,204.833 37.738,204.833 37.253 C 204.833 36.479,204.685 36.165,204.239 35.996 C 203.990 35.901,203.838 35.688,203.804 35.384 C 203.767 35.063,203.643 34.901,203.409 34.868 C 203.209 34.839,202.991 34.615,202.882 34.326 C 202.757 33.997,202.580 33.833,202.348 33.833 C 202.087 33.833,202.000 33.728,202.000 33.411 C 202.000 33.163,201.880 32.944,201.708 32.879 C 201.347 32.742,201.000 32.409,201.000 32.199 C 201.000 32.113,200.775 31.997,200.500 31.942 C 200.103 31.862,200.000 31.755,200.000 31.421 C 200.000 31.066,199.923 31.000,199.511 31.000 C 199.102 31.000,199.014 30.926,198.969 30.542 C 198.928 30.182,198.818 30.072,198.458 30.031 C 198.155 29.996,198.000 29.880,198.000 29.689 C 198.000 29.207,197.640 29.000,196.800 29.000 C 196.022 29.000,196.000 28.986,196.000 28.500 C 196.000 28.023,195.967 28.000,195.292 28.000 C 194.691 27.999,194.533 27.924,194.250 27.500 C 193.951 27.053,193.827 27.001,193.053 27.000 C 192.303 27.000,192.174 26.951,192.072 26.625 C 191.901 26.075,191.709 26.005,190.371 26.003 C 189.251 26.000,189.147 25.970,189.009 25.607 C 188.911 25.349,188.675 25.177,188.326 25.107 C 187.639 24.969,172.911 25.005,172.250 25.146 M357.595 25.429 C 357.451 25.573,357.336 25.779,357.339 25.887 C 357.342 25.995,357.454 25.938,357.589 25.760 C 357.723 25.582,357.927 25.377,358.042 25.304 C 358.191 25.209,358.195 25.171,358.054 25.169 C 357.946 25.168,357.739 25.285,357.595 25.429 M84.166 26.335 C 84.040 26.571,84.001 32.664,84.035 46.820 L 84.083 66.970 84.542 67.330 L 85.000 67.691 85.000 70.192 L 85.000 72.692 85.500 73.192 C 85.951 73.643,86.000 73.797,86.000 74.752 C 86.000 76.011,86.216 76.667,86.669 76.786 C 86.946 76.858,87.000 77.014,87.000 77.736 C 87.000 78.637,87.199 79.000,87.691 79.000 C 87.920 79.000,87.993 79.169,88.033 79.790 C 88.076 80.464,88.151 80.613,88.542 80.799 C 88.859 80.951,89.000 81.145,89.000 81.430 C 89.000 81.754,89.106 81.863,89.500 81.942 C 89.916 82.025,90.000 82.122,90.000 82.521 C 90.000 82.832,90.086 83.000,90.246 83.000 C 90.382 83.000,90.616 83.188,90.767 83.419 C 90.917 83.649,91.213 83.880,91.423 83.933 C 91.643 83.988,91.847 84.199,91.905 84.431 C 91.977 84.717,92.122 84.833,92.407 84.833 C 92.716 84.833,92.832 84.947,92.917 85.333 C 93.015 85.781,93.092 85.833,93.654 85.833 C 94.275 85.833,94.833 86.215,94.833 86.638 C 94.833 86.765,95.178 86.833,95.822 86.833 C 96.777 86.833,96.813 86.849,96.864 87.292 L 96.917 87.750 99.057 87.797 L 101.197 87.844 101.613 88.338 L 102.030 88.833 104.640 88.833 C 107.282 88.832,108.333 88.596,108.333 88.002 C 108.333 87.896,109.231 87.833,110.764 87.833 L 113.196 87.833 113.382 87.340 C 113.565 86.855,113.594 86.845,114.902 86.798 C 116.171 86.752,116.241 86.730,116.333 86.333 C 116.421 85.957,116.522 85.912,117.382 85.867 C 118.309 85.818,118.333 85.804,118.333 85.333 C 118.333 84.862,118.357 84.849,119.292 84.800 C 120.124 84.757,120.257 84.703,120.301 84.394 C 120.335 84.151,120.508 84.007,120.847 83.939 C 121.119 83.885,121.529 83.653,121.758 83.424 C 121.987 83.195,122.416 82.945,122.712 82.869 C 123.077 82.775,123.267 82.616,123.302 82.375 C 123.338 82.131,123.493 82.004,123.802 81.968 C 124.148 81.928,124.262 81.815,124.302 81.468 C 124.342 81.122,124.455 81.008,124.802 80.968 C 125.148 80.928,125.262 80.815,125.302 80.468 C 125.342 80.122,125.455 80.008,125.802 79.968 C 126.151 79.928,126.262 79.815,126.303 79.458 C 126.344 79.097,126.442 79.000,126.765 79.000 C 127.087 79.000,127.196 78.893,127.275 78.500 C 127.352 78.117,127.466 78.000,127.760 78.000 C 128.070 78.000,128.159 77.894,128.213 77.458 C 128.250 77.160,128.292 77.454,128.307 78.111 C 128.338 79.519,128.433 79.833,128.828 79.833 C 129.086 79.833,129.131 80.068,129.208 81.792 C 129.304 83.955,129.470 84.576,129.987 84.712 C 130.221 84.773,130.333 84.937,130.333 85.217 C 130.333 85.637,130.603 85.833,131.180 85.833 C 131.356 85.833,131.500 85.905,131.500 85.994 C 131.500 86.462,132.251 86.833,133.198 86.833 C 134.020 86.833,134.167 86.879,134.167 87.133 C 134.167 87.733,134.505 87.833,136.520 87.833 C 138.767 87.833,139.000 87.777,139.000 87.232 C 139.000 86.865,139.066 86.833,139.827 86.833 C 140.965 86.833,141.000 86.729,141.000 83.286 C 141.000 79.437,140.815 79.000,139.185 79.000 C 137.892 79.000,138.006 81.484,137.959 52.237 L 137.917 26.083 133.059 26.039 C 130.141 26.013,128.028 26.061,127.767 26.160 L 127.333 26.325 127.333 45.893 C 127.333 65.281,127.330 65.462,127.002 65.548 C 126.653 65.639,126.333 66.276,126.333 66.880 C 126.333 67.076,126.141 67.391,125.906 67.578 C 125.613 67.812,125.449 68.140,125.384 68.626 C 125.304 69.222,125.230 69.333,124.913 69.333 C 124.510 69.333,124.333 69.616,124.333 70.259 C 124.333 70.508,124.146 70.795,123.833 71.026 C 123.536 71.246,123.333 71.548,123.333 71.770 C 123.333 72.055,123.223 72.157,122.875 72.197 C 122.518 72.238,122.405 72.349,122.365 72.698 C 122.325 73.045,122.211 73.158,121.865 73.198 C 121.516 73.239,121.405 73.351,121.364 73.708 C 121.322 74.070,121.225 74.167,120.901 74.167 C 120.579 74.167,120.470 74.274,120.392 74.667 C 120.313 75.059,120.204 75.167,119.883 75.167 C 119.651 75.167,119.258 75.383,118.974 75.667 C 118.647 75.994,118.306 76.167,117.987 76.167 C 117.586 76.167,117.500 76.236,117.500 76.560 C 117.500 76.904,117.391 76.972,116.625 77.102 C 115.959 77.215,115.711 77.339,115.585 77.625 C 115.464 77.901,115.281 78.000,114.888 78.000 C 114.077 78.000,113.500 78.275,113.500 78.663 C 113.500 78.973,113.389 79.001,112.125 79.017 C 110.427 79.037,109.963 79.157,109.752 79.630 C 109.571 80.036,105.333 80.229,105.333 79.831 C 105.333 79.463,104.248 79.001,103.383 79.001 C 102.863 79.000,102.463 78.915,102.383 78.788 C 102.177 78.459,101.381 78.000,101.017 78.000 C 100.805 78.000,100.671 77.869,100.637 77.625 C 100.599 77.359,100.453 77.235,100.135 77.198 C 99.789 77.158,99.675 77.045,99.635 76.698 C 99.595 76.352,99.482 76.238,99.135 76.198 C 98.789 76.158,98.675 76.045,98.635 75.698 C 98.598 75.380,98.474 75.235,98.208 75.197 C 97.947 75.160,97.833 75.030,97.833 74.770 C 97.833 74.552,97.634 74.249,97.356 74.043 C 96.963 73.753,96.863 73.533,96.794 72.813 C 96.729 72.135,96.610 71.851,96.271 71.559 C 95.881 71.223,95.833 71.064,95.833 70.080 C 95.833 68.837,95.640 68.333,95.161 68.333 C 94.837 68.333,94.833 68.097,94.833 47.367 C 94.833 31.281,94.787 26.353,94.633 26.200 C 94.233 25.800,84.384 25.927,84.166 26.335 M216.749 26.375 C 216.700 26.581,216.679 40.250,216.704 56.750 L 216.750 86.750 221.625 86.794 L 226.500 86.838 226.500 56.419 L 226.500 26.000 221.670 26.000 L 216.840 26.000 216.749 26.375 M354.667 26.667 C 354.569 26.850,354.554 27.000,354.635 27.000 C 354.716 27.000,354.917 26.850,355.083 26.667 C 355.350 26.372,355.353 26.333,355.115 26.333 C 354.967 26.333,354.765 26.483,354.667 26.667 M300.954 27.962 C 300.882 28.309,300.702 28.564,300.462 28.660 C 300.180 28.773,300.157 28.815,300.371 28.823 C 300.727 28.836,301.217 28.123,301.131 27.717 C 301.091 27.522,301.028 27.609,300.954 27.962 M379.292 28.172 C 379.498 28.255,379.673 28.456,379.680 28.620 C 379.688 28.804,379.726 28.835,379.779 28.703 C 379.892 28.421,379.531 27.997,379.188 28.011 C 379.004 28.018,379.038 28.070,379.292 28.172 M289.762 30.262 C 289.618 30.406,289.505 30.650,289.511 30.804 C 289.518 31.002,289.565 30.973,289.673 30.704 C 289.757 30.496,289.996 30.257,290.204 30.173 C 290.473 30.065,290.502 30.018,290.304 30.011 C 290.150 30.005,289.906 30.118,289.762 30.262 M382.105 30.271 C 382.300 30.443,382.505 30.696,382.560 30.833 C 382.630 31.007,382.649 30.988,382.622 30.770 C 382.601 30.598,382.396 30.345,382.167 30.208 L 381.750 29.959 382.105 30.271 M366.136 33.353 C 365.889 33.617,365.728 33.833,365.777 33.833 C 365.962 33.833,366.833 33.137,366.833 32.989 C 366.833 32.730,366.606 32.848,366.136 33.353 M361.846 34.033 C 361.839 34.189,361.702 34.393,361.542 34.487 C 361.381 34.580,361.335 34.659,361.438 34.662 C 361.713 34.669,362.045 34.212,361.946 33.964 C 361.890 33.826,361.855 33.851,361.846 34.033 M372.269 34.073 C 372.320 34.205,372.552 34.438,372.785 34.591 C 373.076 34.782,373.168 34.798,373.079 34.642 C 372.704 33.988,372.064 33.538,372.269 34.073 M298.714 35.283 C 298.453 35.555,298.415 35.667,298.583 35.667 C 298.714 35.667,298.905 35.510,299.008 35.319 C 299.264 34.841,299.153 34.827,298.714 35.283 M341.037 39.093 C 340.833 39.235,340.669 39.479,340.672 39.634 C 340.676 39.871,340.708 39.863,340.868 39.583 C 340.973 39.400,341.177 39.159,341.321 39.047 C 341.704 38.751,341.472 38.788,341.037 39.093 M339.929 41.095 C 339.785 41.239,339.669 41.446,339.672 41.554 C 339.675 41.678,339.755 41.658,339.888 41.500 C 340.004 41.362,340.204 41.156,340.333 41.042 C 340.476 40.914,340.494 40.833,340.379 40.833 C 340.275 40.833,340.073 40.951,339.929 41.095 M352.013 41.867 C 352.006 42.023,351.869 42.227,351.708 42.320 C 351.548 42.413,351.501 42.492,351.605 42.495 C 351.880 42.502,352.212 42.046,352.112 41.797 C 352.057 41.659,352.022 41.684,352.013 41.867 M386.745 56.917 C 386.745 62.233,386.766 64.432,386.792 61.804 C 386.817 59.175,386.817 54.825,386.792 52.137 C 386.766 49.449,386.745 51.600,386.745 56.917 M349.111 47.864 C 349.050 48.109,348.869 48.343,348.708 48.385 C 348.439 48.455,348.439 48.463,348.702 48.481 C 349.012 48.502,349.396 47.937,349.289 47.617 C 349.253 47.508,349.173 47.619,349.111 47.864 M286.775 50.755 C 286.886 51.045,287.500 51.421,287.500 51.198 C 287.500 51.035,286.951 50.500,286.784 50.500 C 286.725 50.500,286.721 50.615,286.775 50.755 M300.333 51.773 C 300.471 51.828,300.724 52.033,300.895 52.228 L 301.208 52.583 300.959 52.167 C 300.822 51.938,300.569 51.733,300.397 51.711 C 300.179 51.684,300.159 51.703,300.333 51.773 M290.606 54.771 C 290.655 54.966,290.895 55.211,291.139 55.316 C 291.539 55.486,291.553 55.482,291.278 55.266 C 291.110 55.135,290.870 54.890,290.745 54.722 C 290.530 54.434,290.522 54.437,290.606 54.771 M303.548 58.875 C 303.751 59.081,303.946 59.182,303.981 59.098 C 304.017 59.014,303.909 58.845,303.741 58.723 C 303.260 58.371,303.142 58.463,303.548 58.875 M336.686 60.361 C 336.659 60.755,336.839 61.167,337.038 61.167 C 337.153 61.167,337.153 61.099,337.038 60.958 C 336.945 60.844,336.832 60.600,336.787 60.417 C 336.727 60.171,336.700 60.156,336.686 60.361 M293.400 63.667 C 293.400 64.996,293.425 65.540,293.457 64.875 C 293.489 64.210,293.489 63.123,293.457 62.458 C 293.425 61.794,293.400 62.337,293.400 63.667 M348.833 64.833 C 349.017 65.017,349.167 65.254,349.167 65.361 C 349.167 65.468,349.206 65.516,349.255 65.468 C 349.422 65.301,349.008 64.500,348.754 64.500 C 348.553 64.500,348.569 64.569,348.833 64.833 M337.719 65.583 C 337.737 65.767,337.917 65.989,338.119 66.078 C 338.321 66.167,338.517 66.392,338.554 66.578 C 338.614 66.881,338.624 66.877,338.644 66.538 C 338.659 66.278,338.540 66.110,338.264 66.005 C 338.043 65.921,337.822 65.717,337.774 65.551 C 337.700 65.300,337.691 65.306,337.719 65.583 M386.167 67.667 C 385.983 67.850,385.836 68.094,385.838 68.208 C 385.841 68.323,385.929 68.267,386.035 68.083 C 386.140 67.900,386.344 67.659,386.488 67.547 C 386.632 67.435,386.694 67.342,386.625 67.339 C 386.556 67.336,386.350 67.483,386.167 67.667 M385.213 69.542 C 384.895 69.953,384.811 70.242,385.111 69.895 C 385.279 69.700,385.529 69.500,385.667 69.450 C 385.875 69.375,385.872 69.357,385.645 69.346 C 385.496 69.339,385.302 69.427,385.213 69.542 M291.762 70.595 C 291.618 70.739,291.502 70.946,291.505 71.054 C 291.508 71.162,291.585 71.121,291.677 70.964 C 291.769 70.806,291.973 70.602,292.130 70.510 C 292.288 70.419,292.328 70.341,292.220 70.338 C 292.112 70.336,291.906 70.451,291.762 70.595 M382.997 72.421 C 382.881 72.560,382.834 72.723,382.893 72.782 C 382.952 72.841,383.000 72.799,383.000 72.689 C 383.000 72.579,383.169 72.421,383.375 72.339 C 383.629 72.237,383.662 72.184,383.479 72.177 C 383.330 72.171,383.113 72.281,382.997 72.421 M356.302 75.430 C 356.517 75.845,357.000 76.273,357.000 76.049 C 357.000 75.963,356.802 75.710,356.561 75.487 C 356.169 75.127,356.141 75.121,356.302 75.430 M343.669 77.292 C 343.674 77.534,343.963 77.873,344.113 77.812 C 344.196 77.778,344.130 77.619,343.965 77.458 C 343.801 77.298,343.668 77.223,343.669 77.292 M376.380 77.375 C 376.097 77.740,375.938 78.128,376.196 77.821 C 376.317 77.677,376.567 77.473,376.750 77.368 C 377.016 77.216,377.028 77.176,376.812 77.172 C 376.663 77.169,376.468 77.260,376.380 77.375 M258.804 78.125 C 263.051 78.150,269.951 78.150,274.138 78.125 C 278.324 78.100,274.850 78.080,266.417 78.080 C 257.983 78.080,254.558 78.100,258.804 78.125 M365.370 79.344 C 365.527 79.436,365.731 79.639,365.823 79.797 C 365.915 79.954,365.992 79.995,365.995 79.887 C 366.001 79.633,365.534 79.165,365.280 79.172 C 365.172 79.175,365.212 79.252,365.370 79.344 M370.643 79.486 C 370.427 79.661,370.293 79.848,370.347 79.902 C 370.400 79.955,370.619 79.811,370.834 79.583 C 371.298 79.089,371.196 79.037,370.643 79.486 M387.125 79.535 C 386.819 79.848,386.922 79.930,387.312 79.683 C 387.438 79.604,387.513 79.471,387.479 79.387 C 387.445 79.304,387.285 79.370,387.125 79.535 M386.333 80.333 C 386.235 80.517,386.033 80.667,385.883 80.667 C 385.733 80.667,385.655 80.711,385.710 80.765 C 385.896 80.951,386.464 80.655,386.550 80.328 C 386.660 79.906,386.561 79.909,386.333 80.333 M385.221 81.420 C 384.871 81.819,384.892 81.959,385.262 81.706 C 385.415 81.601,385.724 80.994,385.620 81.003 C 385.600 81.005,385.420 81.192,385.221 81.420 M292.595 84.262 C 292.419 84.391,292.327 84.549,292.391 84.613 C 292.455 84.678,292.633 84.605,292.786 84.452 C 293.146 84.093,293.011 83.958,292.595 84.262 M381.025 84.267 C 380.901 84.407,380.843 84.565,380.896 84.618 C 381.012 84.734,381.500 84.353,381.500 84.146 C 381.500 83.925,381.277 83.982,381.025 84.267 M287.749 86.168 C 287.583 86.352,287.487 86.543,287.537 86.592 C 287.647 86.702,288.167 86.204,288.167 85.988 C 288.167 85.761,288.086 85.795,287.749 86.168 M377.164 86.505 C 376.761 86.812,376.760 86.818,377.128 86.723 C 377.335 86.670,377.549 86.555,377.603 86.469 C 377.786 86.172,377.579 86.189,377.164 86.505 M392.942 87.088 C 393.050 87.370,393.667 87.757,393.667 87.543 C 393.667 87.407,393.063 86.833,392.920 86.833 C 392.878 86.833,392.888 86.948,392.942 87.088 M398.776 87.138 C 398.624 87.306,398.500 87.496,398.500 87.561 C 398.500 87.762,399.122 87.357,399.225 87.088 C 399.359 86.740,399.111 86.767,398.776 87.138 " stroke="none" fill="#040404" fill-rule="evenodd"></path><path id="path2" d="M397.000 40.260 C 397.000 64.835,397.056 77.152,397.167 77.083 C 397.277 77.015,397.333 64.526,397.333 40.157 C 397.333 15.719,397.277 3.333,397.167 3.333 C 397.056 3.333,397.000 15.753,397.000 40.260 M294.356 9.875 C 294.336 10.274,294.392 10.330,294.792 10.311 C 295.169 10.292,295.186 10.275,294.885 10.217 C 294.675 10.176,294.491 9.992,294.450 9.781 C 294.391 9.481,294.375 9.498,294.356 9.875 M295.444 10.611 C 295.140 10.915,295.347 11.333,295.792 11.311 C 296.208 11.290,296.214 11.281,295.859 11.214 C 295.570 11.159,295.490 11.056,295.552 10.820 C 295.641 10.477,295.620 10.436,295.444 10.611 M289.624 21.855 C 289.737 21.998,289.789 22.156,289.737 22.207 C 289.686 22.258,289.781 22.289,289.947 22.275 C 290.141 22.259,290.242 22.355,290.227 22.540 C 290.215 22.699,290.271 22.789,290.352 22.738 C 290.618 22.574,290.509 22.362,289.958 21.976 C 289.660 21.767,289.510 21.713,289.624 21.855 M300.708 23.916 C 300.577 24.065,300.500 24.671,300.500 25.556 C 300.500 26.475,300.572 27.019,300.708 27.132 C 300.873 27.269,300.917 26.922,300.917 25.486 C 300.917 24.485,300.917 23.670,300.917 23.673 C 300.917 23.676,300.823 23.786,300.708 23.916 M385.667 34.417 C 385.667 34.646,385.731 34.833,385.810 34.833 C 385.889 34.833,385.918 34.646,385.874 34.417 C 385.830 34.188,385.766 34.000,385.731 34.000 C 385.695 34.000,385.667 34.188,385.667 34.417 M343.346 36.214 C 343.339 36.377,343.165 36.579,342.958 36.661 L 342.583 36.812 342.964 36.823 C 343.360 36.834,343.593 36.498,343.446 36.130 C 343.392 35.998,343.355 36.030,343.346 36.214 M302.236 56.107 C 302.261 56.277,302.341 56.392,302.414 56.361 C 302.487 56.330,302.607 56.403,302.681 56.523 C 302.755 56.642,302.856 56.699,302.907 56.649 C 302.957 56.598,302.817 56.386,302.595 56.177 C 302.235 55.839,302.196 55.832,302.236 56.107 M347.336 61.599 C 347.332 61.850,347.976 62.413,348.112 62.277 C 348.173 62.216,348.135 62.167,348.028 62.167 C 347.921 62.167,347.852 62.110,347.875 62.042 C 347.898 61.973,347.850 61.904,347.769 61.889 C 347.687 61.874,347.557 61.762,347.480 61.639 C 347.401 61.515,347.337 61.497,347.336 61.599 M294.227 63.833 C 294.227 64.704,294.255 65.060,294.289 64.625 C 294.324 64.190,294.324 63.477,294.289 63.042 C 294.255 62.606,294.227 62.962,294.227 63.833 M303.344 70.404 C 303.230 70.542,303.214 70.676,303.306 70.733 C 303.392 70.786,303.549 70.725,303.656 70.596 C 303.770 70.458,303.786 70.324,303.694 70.267 C 303.608 70.214,303.451 70.275,303.344 70.404 M301.408 75.348 C 301.346 75.448,301.371 75.604,301.462 75.696 C 301.573 75.807,301.672 75.793,301.757 75.655 C 301.839 75.522,301.816 75.491,301.692 75.567 C 301.587 75.633,301.500 75.613,301.500 75.524 C 301.500 75.434,301.594 75.323,301.708 75.277 C 301.859 75.216,301.861 75.189,301.718 75.180 C 301.609 75.173,301.469 75.248,301.408 75.348 " stroke="none" fill="#046068" fill-rule="evenodd"></path><path id="path3" d="M397.000 40.260 C 397.000 64.835,397.056 77.152,397.167 77.083 C 397.277 77.015,397.333 64.526,397.333 40.157 C 397.333 15.719,397.277 3.333,397.167 3.333 C 397.056 3.333,397.000 15.753,397.000 40.260 M294.356 9.875 C 294.336 10.274,294.392 10.330,294.792 10.311 C 295.169 10.292,295.186 10.275,294.885 10.217 C 294.675 10.176,294.491 9.992,294.450 9.781 C 294.391 9.481,294.375 9.498,294.356 9.875 M295.444 10.611 C 295.140 10.915,295.347 11.333,295.792 11.311 C 296.208 11.290,296.214 11.281,295.859 11.214 C 295.570 11.159,295.490 11.056,295.552 10.820 C 295.641 10.477,295.620 10.436,295.444 10.611 M289.624 21.855 C 289.737 21.998,289.789 22.156,289.737 22.207 C 289.686 22.258,289.781 22.289,289.947 22.275 C 290.141 22.259,290.242 22.355,290.227 22.540 C 290.215 22.699,290.271 22.789,290.352 22.738 C 290.618 22.574,290.509 22.362,289.958 21.976 C 289.660 21.767,289.510 21.713,289.624 21.855 M300.708 23.916 C 300.577 24.065,300.500 24.671,300.500 25.556 C 300.500 26.475,300.572 27.019,300.708 27.132 C 300.873 27.269,300.917 26.922,300.917 25.486 C 300.917 24.485,300.917 23.670,300.917 23.673 C 300.917 23.676,300.823 23.786,300.708 23.916 M385.667 34.417 C 385.667 34.646,385.731 34.833,385.810 34.833 C 385.889 34.833,385.918 34.646,385.874 34.417 C 385.830 34.188,385.766 34.000,385.731 34.000 C 385.695 34.000,385.667 34.188,385.667 34.417 M343.346 36.214 C 343.339 36.377,343.165 36.579,342.958 36.661 L 342.583 36.812 342.964 36.823 C 343.360 36.834,343.593 36.498,343.446 36.130 C 343.392 35.998,343.355 36.030,343.346 36.214 M302.236 56.107 C 302.261 56.277,302.341 56.392,302.414 56.361 C 302.487 56.330,302.607 56.403,302.681 56.523 C 302.755 56.642,302.856 56.699,302.907 56.649 C 302.957 56.598,302.817 56.386,302.595 56.177 C 302.235 55.839,302.196 55.832,302.236 56.107 M347.336 61.599 C 347.332 61.850,347.976 62.413,348.112 62.277 C 348.173 62.216,348.135 62.167,348.028 62.167 C 347.921 62.167,347.852 62.110,347.875 62.042 C 347.898 61.973,347.850 61.904,347.769 61.889 C 347.687 61.874,347.557 61.762,347.480 61.639 C 347.401 61.515,347.337 61.497,347.336 61.599 M294.227 63.833 C 294.227 64.704,294.255 65.060,294.289 64.625 C 294.324 64.190,294.324 63.477,294.289 63.042 C 294.255 62.606,294.227 62.962,294.227 63.833 M303.344 70.404 C 303.230 70.542,303.214 70.676,303.306 70.733 C 303.392 70.786,303.549 70.725,303.656 70.596 C 303.770 70.458,303.786 70.324,303.694 70.267 C 303.608 70.214,303.451 70.275,303.344 70.404 M301.408 75.348 C 301.346 75.448,301.371 75.604,301.462 75.696 C 301.573 75.807,301.672 75.793,301.757 75.655 C 301.839 75.522,301.816 75.491,301.692 75.567 C 301.587 75.633,301.500 75.613,301.500 75.524 C 301.500 75.434,301.594 75.323,301.708 75.277 C 301.859 75.216,301.861 75.189,301.718 75.180 C 301.609 75.173,301.469 75.248,301.408 75.348 " stroke="none" fill="#046068" fill-rule="evenodd"></path><path id="path4" d="M397.000 40.260 C 397.000 64.835,397.056 77.152,397.167 77.083 C 397.277 77.015,397.333 64.526,397.333 40.157 C 397.333 15.719,397.277 3.333,397.167 3.333 C 397.056 3.333,397.000 15.753,397.000 40.260 M294.356 9.875 C 294.336 10.274,294.392 10.330,294.792 10.311 C 295.169 10.292,295.186 10.275,294.885 10.217 C 294.675 10.176,294.491 9.992,294.450 9.781 C 294.391 9.481,294.375 9.498,294.356 9.875 M295.444 10.611 C 295.140 10.915,295.347 11.333,295.792 11.311 C 296.208 11.290,296.214 11.281,295.859 11.214 C 295.570 11.159,295.490 11.056,295.552 10.820 C 295.641 10.477,295.620 10.436,295.444 10.611 M289.624 21.855 C 289.737 21.998,289.789 22.156,289.737 22.207 C 289.686 22.258,289.781 22.289,289.947 22.275 C 290.141 22.259,290.242 22.355,290.227 22.540 C 290.215 22.699,290.271 22.789,290.352 22.738 C 290.618 22.574,290.509 22.362,289.958 21.976 C 289.660 21.767,289.510 21.713,289.624 21.855 M300.708 23.916 C 300.577 24.065,300.500 24.671,300.500 25.556 C 300.500 26.475,300.572 27.019,300.708 27.132 C 300.873 27.269,300.917 26.922,300.917 25.486 C 300.917 24.485,300.917 23.670,300.917 23.673 C 300.917 23.676,300.823 23.786,300.708 23.916 M385.667 34.417 C 385.667 34.646,385.731 34.833,385.810 34.833 C 385.889 34.833,385.918 34.646,385.874 34.417 C 385.830 34.188,385.766 34.000,385.731 34.000 C 385.695 34.000,385.667 34.188,385.667 34.417 M343.346 36.214 C 343.339 36.377,343.165 36.579,342.958 36.661 L 342.583 36.812 342.964 36.823 C 343.360 36.834,343.593 36.498,343.446 36.130 C 343.392 35.998,343.355 36.030,343.346 36.214 M302.236 56.107 C 302.261 56.277,302.341 56.392,302.414 56.361 C 302.487 56.330,302.607 56.403,302.681 56.523 C 302.755 56.642,302.856 56.699,302.907 56.649 C 302.957 56.598,302.817 56.386,302.595 56.177 C 302.235 55.839,302.196 55.832,302.236 56.107 M347.336 61.599 C 347.332 61.850,347.976 62.413,348.112 62.277 C 348.173 62.216,348.135 62.167,348.028 62.167 C 347.921 62.167,347.852 62.110,347.875 62.042 C 347.898 61.973,347.850 61.904,347.769 61.889 C 347.687 61.874,347.557 61.762,347.480 61.639 C 347.401 61.515,347.337 61.497,347.336 61.599 M294.227 63.833 C 294.227 64.704,294.255 65.060,294.289 64.625 C 294.324 64.190,294.324 63.477,294.289 63.042 C 294.255 62.606,294.227 62.962,294.227 63.833 M303.344 70.404 C 303.230 70.542,303.214 70.676,303.306 70.733 C 303.392 70.786,303.549 70.725,303.656 70.596 C 303.770 70.458,303.786 70.324,303.694 70.267 C 303.608 70.214,303.451 70.275,303.344 70.404 M301.408 75.348 C 301.346 75.448,301.371 75.604,301.462 75.696 C 301.573 75.807,301.672 75.793,301.757 75.655 C 301.839 75.522,301.816 75.491,301.692 75.567 C 301.587 75.633,301.500 75.613,301.500 75.524 C 301.500 75.434,301.594 75.323,301.708 75.277 C 301.859 75.216,301.861 75.189,301.718 75.180 C 301.609 75.173,301.469 75.248,301.408 75.348 " stroke="none" fill="#046068" fill-rule="evenodd"></path></g></svg>